HIERARCHY
ROOT hip
{
  OFFSET 5.70873 43.8894 -1.52928
  CHANNELS 6 Xposition Yposition Zposition Zrotation Xrotation Yrotation
  JOINT abdomen
  {
    OFFSET 0 5.99393 0.287273
    CHANNELS 6 Xposition Yposition Zposition Zrotation Xrotation Yrotation
    JOINT chest
    {
      OFFSET 0 6.65865 -0.856112
      CHANNELS 6 Xposition Yposition Zposition Zrotation Xrotation Yrotation
      JOINT neck
      {
        OFFSET 0 8.65624 -1.42685
        CHANNELS 6 Xposition Yposition Zposition Zrotation Xrotation Yrotation
        JOINT head
        {
          OFFSET 0 3.80999 -0.190247
          CHANNELS 6 Xposition Yposition Zposition Zrotation Xrotation Yrotation
          End Site
          {
            OFFSET 0 0 0
          }
        }
      }
      JOINT rCollar
      {
        OFFSET -1.4963 7.5744 -1.52136
        CHANNELS 6 Xposition Yposition Zposition Zrotation Xrotation Yrotation
        JOINT rShldr
        {
          OFFSET -5.47506 -0.905672 0.485692
          CHANNELS 6 Xposition Yposition Zposition Zrotation Xrotation Yrotation
          JOINT rForeArm
          {
            OFFSET -11.3069 -0.201091 0.618544
            CHANNELS 6 Xposition Yposition Zposition Zrotation Xrotation Yrotation
            JOINT rHand
            {
              OFFSET -9.61414 -0.254739 3.48553
              CHANNELS 6 Xposition Yposition Zposition Zrotation Xrotation Yrotation
              JOINT rThumb1
              {
                OFFSET 0.176263 -0.07068 1.26622
                CHANNELS 6 Xposition Yposition Zposition Zrotation Xrotation Yrotation
                JOINT rThumb2
                {
                  OFFSET -1.04683 -0.546484 1.82182
                  CHANNELS 6 Xposition Yposition Zposition Zrotation Xrotation Yrotation
                  JOINT rThumb3
                  {
                    OFFSET -0.993472 -0.621916 0.655506
                    CHANNELS 6 Xposition Yposition Zposition Zrotation Xrotation Yrotation
                    End Site
                    {
                      OFFSET -0.996134 -0.66263 0.644615
                    }
                  }
                }
              }
              JOINT rIndex1
              {
                OFFSET -2.64253 0.566363 2.4162
                CHANNELS 6 Xposition Yposition Zposition Zrotation Xrotation Yrotation
                JOINT rIndex2
                {
                  OFFSET -1.39394 -0.635138 0.899356
                  CHANNELS 6 Xposition Yposition Zposition Zrotation Xrotation Yrotation
                  JOINT rIndex3
                  {
                    OFFSET -0.622395 -0.856016 0.402182
                    CHANNELS 6 Xposition Yposition Zposition Zrotation Xrotation Yrotation
                    End Site
                    {
                      OFFSET -0.472476 -0.801802 0.34216
                    }
                  }
                }
              }
              JOINT rMid1
              {
                OFFSET -3.20814 0.514427 1.52547
                CHANNELS 6 Xposition Yposition Zposition Zrotation Xrotation Yrotation
                JOINT rMid2
                {
                  OFFSET -1.56545 -0.497974 0.68919
                  CHANNELS 6 Xposition Yposition Zposition Zrotation Xrotation Yrotation
                  JOINT rMid3
                  {
                    OFFSET -0.679943 -1.17582 0.444246
                    CHANNELS 6 Xposition Yposition Zposition Zrotation Xrotation Yrotation
                    End Site
                    {
                      OFFSET -0.343874 -0.941341 0.267611
                    }
                  }
                }
              }
              JOINT rRing1
              {
                OFFSET -3.47877 0.200518 0.597719
                CHANNELS 6 Xposition Yposition Zposition Zrotation Xrotation Yrotation
                JOINT rRing2
                {
                  OFFSET -1.28208 -0.53155 0.44672
                  CHANNELS 6 Xposition Yposition Zposition Zrotation Xrotation Yrotation
                  JOINT rRing3
                  {
                    OFFSET -0.710288 -0.970167 0.4032
                    CHANNELS 6 Xposition Yposition Zposition Zrotation Xrotation Yrotation
                    End Site
                    {
                      OFFSET -0.403228 -0.950952 0.378354
                    }
                  }
                }
              }
              JOINT rPinky1
              {
                OFFSET -3.42483 -0.278904 -0.240415
                CHANNELS 6 Xposition Yposition Zposition Zrotation Xrotation Yrotation
                JOINT rPinky2
                {
                  OFFSET -1.05787 -0.635999 0.156459
                  CHANNELS 6 Xposition Yposition Zposition Zrotation Xrotation Yrotation
                  JOINT rPinky3
                  {
                    OFFSET -0.42815 -0.754232 0.287187
                    CHANNELS 6 Xposition Yposition Zposition Zrotation Xrotation Yrotation
                    End Site
                    {
                      OFFSET -0.235717 -0.725605 0.279416
                    }
                  }
                }
              }
            }
          }
        }
      }
      JOINT lCollar
      {
        OFFSET 1.4963 7.5744 -1.52136
        CHANNELS 6 Xposition Yposition Zposition Zrotation Xrotation Yrotation
        JOINT lShldr
        {
          OFFSET 5.47506 -0.905672 0.485692
          CHANNELS 6 Xposition Yposition Zposition Zrotation Xrotation Yrotation
          JOINT lForeArm
          {
            OFFSET 11.3069 -0.201091 0.618544
            CHANNELS 6 Xposition Yposition Zposition Zrotation Xrotation Yrotation
            JOINT lHand
            {
              OFFSET 9.61414 -0.254739 3.48553
              CHANNELS 6 Xposition Yposition Zposition Zrotation Xrotation Yrotation
              JOINT lThumb1
              {
                OFFSET -0.176263 -0.07068 1.26622
                CHANNELS 6 Xposition Yposition Zposition Zrotation Xrotation Yrotation
                JOINT lThumb2
                {
                  OFFSET 1.04683 -0.546484 1.82182
                  CHANNELS 6 Xposition Yposition Zposition Zrotation Xrotation Yrotation
                  JOINT lThumb3
                  {
                    OFFSET 0.993472 -0.621916 0.655506
                    CHANNELS 6 Xposition Yposition Zposition Zrotation Xrotation Yrotation
                    End Site
                    {
                      OFFSET 0.996134 -0.66263 0.644615
                    }
                  }
                }
              }
              JOINT lIndex1
              {
                OFFSET 2.64253 0.566363 2.4162
                CHANNELS 6 Xposition Yposition Zposition Zrotation Xrotation Yrotation
                JOINT lIndex2
                {
                  OFFSET 1.39394 -0.635138 0.899356
                  CHANNELS 6 Xposition Yposition Zposition Zrotation Xrotation Yrotation
                  JOINT lIndex3
                  {
                    OFFSET 0.622395 -0.856016 0.402182
                    CHANNELS 6 Xposition Yposition Zposition Zrotation Xrotation Yrotation
                    End Site
                    {
                      OFFSET 0.472476 -0.801802 0.34216
                    }
                  }
                }
              }
              JOINT lMid1
              {
                OFFSET 3.20814 0.514427 1.52547
                CHANNELS 6 Xposition Yposition Zposition Zrotation Xrotation Yrotation
                JOINT lMid2
                {
                  OFFSET 1.56545 -0.497974 0.68919
                  CHANNELS 6 Xposition Yposition Zposition Zrotation Xrotation Yrotation
                  JOINT lMid3
                  {
                    OFFSET 0.679943 -1.17582 0.444246
                    CHANNELS 6 Xposition Yposition Zposition Zrotation Xrotation Yrotation
                    End Site
                    {
                      OFFSET 0.343874 -0.941341 0.267611
                    }
                  }
                }
              }
              JOINT lRing1
              {
                OFFSET 3.47877 0.200518 0.597719
                CHANNELS 6 Xposition Yposition Zposition Zrotation Xrotation Yrotation
                JOINT lRing2
                {
                  OFFSET 1.28208 -0.53155 0.44672
                  CHANNELS 6 Xposition Yposition Zposition Zrotation Xrotation Yrotation
                  JOINT lRing3
                  {
                    OFFSET 0.710288 -0.970167 0.4032
                    CHANNELS 6 Xposition Yposition Zposition Zrotation Xrotation Yrotation
                    End Site
                    {
                      OFFSET 0.403228 -0.950952 0.378354
                    }
                  }
                }
              }
              JOINT lPinky1
              {
                OFFSET 3.42483 -0.278904 -0.240415
                CHANNELS 6 Xposition Yposition Zposition Zrotation Xrotation Yrotation
                JOINT lPinky2
                {
                  OFFSET 1.05787 -0.635999 0.156459
                  CHANNELS 6 Xposition Yposition Zposition Zrotation Xrotation Yrotation
                  JOINT lPinky3
                  {
                    OFFSET 0.42815 -0.754232 0.287187
                    CHANNELS 6 Xposition Yposition Zposition Zrotation Xrotation Yrotation
                    End Site
                    {
                      OFFSET 0.235717 -0.725605 0.279416
                    }
                  }
                }
              }
            }
          }
        }
      }
    }
  }
  JOINT rThigh
  {
    OFFSET -4.17848 -1.02486 0.046356
    CHANNELS 6 Xposition Yposition Zposition Zrotation Xrotation Yrotation
    JOINT rShin
    {
      OFFSET 1.27155 -17.465 -0.237699
      CHANNELS 6 Xposition Yposition Zposition Zrotation Xrotation Yrotation
      JOINT rFoot
      {
        OFFSET 0.529163 -17.3815 -1.19582
        CHANNELS 6 Xposition Yposition Zposition Zrotation Xrotation Yrotation
        JOINT rToe
        {
          OFFSET -0.711591 -4.4863 4.0596
          CHANNELS 6 Xposition Yposition Zposition Zrotation Xrotation Yrotation
          End Site
          {
            OFFSET -0.869915 -1.10655 1.99006
          }
        }
      }
    }
  }
  JOINT lThigh
  {
    OFFSET 4.17848 -1.02486 0.046356
    CHANNELS 6 Xposition Yposition Zposition Zrotation Xrotation Yrotation
    JOINT lShin
    {
      OFFSET -1.27155 -17.465 -0.237699
      CHANNELS 6 Xposition Yposition Zposition Zrotation Xrotation Yrotation
      JOINT lFoot
      {
        OFFSET -0.529163 -17.3815 -1.19582
        CHANNELS 6 Xposition Yposition Zposition Zrotation Xrotation Yrotation
        JOINT lToe
        {
          OFFSET 0.711591 -4.4863 4.0596
          CHANNELS 6 Xposition Yposition Zposition Zrotation Xrotation Yrotation
          End Site
          {
            OFFSET 0.869915 -1.10655 1.99006
          }
        }
      }
    }
  }
}
MOTION
Frames:	4
Frame Time:	0.0333333
-16.9668 42.868 -22.8231 -0.635289 6.14514 101.884 0 5.99393 0.287273 0.0206862 -3.588 1.70387 0 6.65865 -0.856112 0.14893 -7.17379 3.41908 0 8.65624 -1.42685 -0.570334 13.6137 -8.57082 0 3.80999 -0.190247 -6.33127 -1.09968 -8.81141 -1.4963 7.5744 -1.52136 -43.5853 -1.22254 5.57957 -5.47506 -0.905672 0.485692 -7.90603 -42.0505 -3.66084 -11.3069 -0.201091 0.618544 2.07042 -34.9639 9.81 -9.61414 -0.254739 3.48553 9.33688 -20.4774 -7.71124 0.176263 -0.07068 1.26622 -15.6898 50.4111 18.512 -1.04683 -0.546484 1.82182 -0.515923 0.557609 -1.56013 -0.993472 -0.621916 0.655506 -2.72966 3.35529 -8.82947 -2.64253 0.566363 2.4162 -23.5967 5.46707 -14.5255 -1.39394 -0.635138 0.899356 39.896 7.70395 -8.81742 -0.622395 -0.856016 0.402182 39.2014 7.62945 -8.62659 -3.20814 0.514427 1.52547 -0.842772 5.95797 -9.81752 -1.56545 -0.497974 0.68919 52.7409 10.533 -13.0892 -0.679943 -1.17582 0.444246 44.481 9.78104 -10.5178 -3.47877 0.200518 0.597719 16.3691 -0.640286 -5.84749 -1.28208 -0.53155 0.44672 37.8363 9.7177 -10.3215 -0.710288 -0.970167 0.4032 39.1354 9.91104 -10.7659 -3.42483 -0.278904 -0.240415 24.5489 -1.93035 -2.2828 -1.05787 -0.635999 0.156459 31.0685 9.4788 -7.89265 -0.42815 -0.754232 0.287187 30.9985 9.46351 -7.86995 1.4963 7.5744 -1.52136 0.495364 0.858105 8.23818 5.47506 -0.905672 0.485692 -75.3978 -1.15646 30.8582 11.3069 -0.201091 0.618544 1.29228 6.766 -11.9922 9.61414 -0.254739 3.48553 -21.6352 -37.5605 0.7268 -0.176263 -0.07068 1.26622 0.0131428 -0.000928544 -0.00664646 1.04683 -0.546484 1.82182 -0.000212402 -0.00021954 0.000104535 0.993472 -0.621916 0.655506 -0.000180121 3.51868e-005 1.33585e-005 2.64253 0.566363 2.4162 0.000468739 0.00218093 -0.000350627 1.39394 -0.635138 0.899356 0.000373529 0.000146816 -1.07382e-005 0.622395 -0.856016 0.402182 -0.000176807 1.8159e-005 3.55019e-005 3.20814 0.514427 1.52547 2.09792 -0.815578 -0.83193 1.56545 -0.497974 0.68919 2.099 -0.816064 -0.832347 0.679943 -1.17582 0.444246 2.09906 -0.816194 -0.832642 3.47877 0.200518 0.597719 2.1428 -3.85044 -5.50197 1.28208 -0.53155 0.44672 4.62105 -2.03843 -2.04493 0.710288 -0.970167 0.4032 4.62132 -2.03843 -2.045 3.42483 -0.278904 -0.240415 11.3247 -5.70683 -4.60021 1.05787 -0.635999 0.156459 4.0525 -1.91412 -1.75639 0.42815 -0.754232 0.287187 2.84278 -1.32697 -1.24339 -4.17848 -1.02486 0.046356 -2.15497 -19.8205 44.8101 1.27155 -17.465 -0.237699 9.21863 39.7443 -1.77278 0.529163 -17.3815 -1.19582 -12.8311 8.83023 -21.2815 -0.711591 -4.4863 4.0596 25.343 -2.83564 -8.17082 4.17848 -1.02486 0.046356 -20.4018 2.93201 -1.41115 -1.27155 -17.465 -0.237699 0.499885 -3.14306 0.936758 -0.529163 -17.3815 -1.19582 9.35099 0.302634 -6.28185 0.711591 -4.4863 4.0596 5.83808 4.89476 -1.07634 
-16.9554 42.8516 -22.8722 -0.618043 6.21431 102.51 0 5.99393 0.287273 0.0230566 -3.57736 1.50034 0 6.65865 -0.856112 0.140577 -7.1529 3.01079 0 8.65624 -1.42685 -0.538408 13.6142 -8.47225 0 3.80999 -0.190247 -6.24529 -1.03556 -8.70337 -1.4963 7.5744 -1.52136 -43.585 -1.22083 5.56095 -5.47506 -0.905672 0.485692 -8.60267 -41.7694 -3.92422 -11.3069 -0.201091 0.618544 1.88716 -33.7914 9.32566 -9.61414 -0.254739 3.48553 9.64793 -21.8636 -7.38671 0.176263 -0.07068 1.26622 -15.6899 50.4111 18.5121 -1.04683 -0.546484 1.82182 -0.515931 0.557618 -1.56014 -0.993472 -0.621916 0.655506 -2.72967 3.3553 -8.8295 -2.64253 0.566363 2.4162 -23.5967 5.46706 -14.5255 -1.39394 -0.635138 0.899356 39.8961 7.70394 -8.81741 -0.622395 -0.856016 0.402182 39.2014 7.62945 -8.6266 -3.20814 0.514427 1.52547 -0.842779 5.95795 -9.81752 -1.56545 -0.497974 0.68919 52.741 10.533 -13.0893 -0.679943 -1.17582 0.444246 44.481 9.78103 -10.5178 -3.47877 0.200518 0.597719 16.3691 -0.640277 -5.84748 -1.28208 -0.53155 0.44672 37.8363 9.71771 -10.3215 -0.710288 -0.970167 0.4032 39.1355 9.91105 -10.7659 -3.42483 -0.278904 -0.240415 24.5489 -1.93034 -2.28281 -1.05787 -0.635999 0.156459 31.0686 9.47881 -7.89266 -0.42815 -0.754232 0.287187 30.9986 9.46353 -7.86995 1.4963 7.5744 -1.52136 0.528691 0.885571 8.58098 5.47506 -0.905672 0.485692 -75.2671 -1.09709 30.8415 11.3069 -0.201091 0.618544 1.49758 6.92659 -12.1539 9.61414 -0.254739 3.48553 -22.4841 -38.8392 0.706986 -0.176263 -0.07068 1.26622 -0.0292896 -0.0156602 -0.084967 1.04683 -0.546484 1.82182 -0.000212124 -0.000222842 0.000110034 0.993472 -0.621916 0.655506 -0.0276762 -0.00811021 -0.0489835 2.64253 0.566363 2.4162 0.0970454 -0.0461101 -0.0946158 1.39394 -0.635138 0.899356 0.0969771 -0.032245 -0.0386144 0.622395 -0.856016 0.402182 0.107446 -0.0360725 -0.0429622 3.20814 0.514427 1.52547 2.18701 -0.851296 -0.86851 1.56545 -0.497974 0.68919 2.18878 -0.851758 -0.867405 0.679943 -1.17582 0.444246 2.18886 -0.851872 -0.867684 3.47877 0.200518 0.597719 2.22792 -3.86686 -5.50528 1.28208 -0.53155 0.44672 4.68805 -2.06941 -2.07359 0.710288 -0.970167 0.4032 4.68829 -2.06941 -2.07366 3.42483 -0.278904 -0.240415 11.3899 -5.68584 -4.54147 1.05787 -0.635999 0.156459 4.12311 -1.94881 -1.78601 0.42815 -0.754232 0.287187 2.91951 -1.33614 -1.26841 -4.17848 -1.02486 0.046356 -2.18602 -20.0152 45.0943 1.27155 -17.465 -0.237699 9.5034 40.3224 -1.86197 0.529163 -17.3815 -1.19582 -11.5435 9.15246 -20.1448 -0.711591 -4.4863 4.0596 25.1996 -3.12634 -7.82235 4.17848 -1.02486 0.046356 -20.4962 3.18501 -1.39249 -1.27155 -17.465 -0.237699 0.433756 -3.17249 0.638502 -0.529163 -17.3815 -1.19582 9.60179 0.21927 -6.5652 0.711591 -4.4863 4.0596 5.78764 4.88891 -1.07064 
-16.908 42.8362 -22.9209 -0.560817 6.23426 103.175 -3.55271e-015 5.99393 0.287273 0.0262216 -3.57467 1.2655 0 6.65865 -0.856112 0.132121 -7.14789 2.54006 -3.55271e-015 8.65624 -1.42685 -0.500954 13.7409 -8.42987 0 3.80999 -0.190247 -5.99789 -0.988647 -8.55658 -1.4963 7.5744 -1.52136 -43.5841 -1.21626 5.50659 -5.47506 -0.905672 0.485692 -9.08454 -41.421 -4.12394 -11.3069 -0.201091 0.618544 1.73606 -32.5779 9.04414 -9.61414 -0.254739 3.48553 9.86364 -23.2747 -7.10512 0.176263 -0.07068 1.26622 -15.6899 50.4111 18.512 -1.04683 -0.546484 1.82182 -0.515919 0.557621 -1.56013 -0.993472 -0.621916 0.655506 -2.72967 3.35529 -8.82948 -2.64253 0.566363 2.4162 -23.5967 5.46705 -14.5255 -1.39394 -0.635138 0.899356 39.8961 7.70394 -8.81743 -0.622395 -0.856016 0.402182 39.2014 7.62943 -8.62658 -3.20814 0.514427 1.52547 -0.842816 5.95799 -9.8175 -1.56545 -0.497974 0.68919 52.741 10.533 -13.0893 -0.679943 -1.17582 0.444246 44.481 9.78104 -10.5178 -3.47877 0.200518 0.597719 16.369 -0.640278 -5.84747 -1.28208 -0.53155 0.44672 37.8363 9.71771 -10.3215 -0.710288 -0.970167 0.4032 39.1355 9.91104 -10.7659 -3.42483 -0.278904 -0.240415 24.5489 -1.93035 -2.28279 -1.05787 -0.635999 0.156459 31.0685 9.4788 -7.89266 -0.42815 -0.754232 0.287187 30.9986 9.46353 -7.86994 1.4963 7.5744 -1.52136 0.569593 0.914545 8.98049 5.47506 -0.905672 0.485692 -74.9514 -1.0725 30.9951 11.3069 -0.201091 0.618544 1.68525 7.13301 -12.5919 9.61414 -0.254739 3.48553 -23.7027 -39.8717 0.777987 -0.176263 -0.07068 1.26622 -0.146692 -0.0546316 -0.304601 1.04683 -0.546484 1.82182 -0.00021546 -0.000223613 0.000106114 0.993472 -0.621916 0.655506 -0.0812485 -0.0346818 -0.187371 2.64253 0.566363 2.4162 0.367539 -0.176291 -0.358628 1.39394 -0.635138 0.899356 0.366496 -0.123012 -0.146078 0.622395 -0.856016 0.402182 0.407677 -0.137234 -0.162648 3.20814 0.514427 1.52547 2.43557 -0.951246 -0.970226 1.56545 -0.497974 0.68919 2.43935 -0.951692 -0.964928 0.679943 -1.17582 0.444246 2.44755 -0.949393 -0.965114 3.47877 0.200518 0.597719 2.4654 -3.91297 -5.51427 1.28208 -0.53155 0.44672 4.875 -2.15607 -2.1534 0.710288 -0.970167 0.4032 4.87527 -2.15607 -2.15346 3.42483 -0.278904 -0.240415 11.5683 -5.61127 -4.36299 1.05787 -0.635999 0.156459 4.32013 -2.04581 -1.86842 0.42815 -0.754232 0.287187 3.14575 -1.43916 -1.36326 -4.17848 -1.02486 0.046356 -2.15018 -20.4319 45.1602 1.27155 -17.465 -0.237699 9.92751 41.3759 -2.17345 0.529163 -17.3815 -1.19582 -8.89236 9.51644 -18.9368 -0.711591 -4.4863 4.0596 22.6146 -1.89195 -7.17633 4.17848 -1.02486 0.046356 -20.5191 3.5112 -1.34383 -1.27155 -17.465 -0.237699 0.364754 -3.1444 0.334785 -0.529163 -17.3815 -1.19582 9.81662 0.0379519 -6.88496 0.711591 -4.4863 4.0596 5.73718 4.88307 -1.06497 
-16.8232 42.8222 -22.9646 -0.465914 6.21944 103.729 0 5.99393 0.287273 0.0351348 -3.59123 1.07282 0 6.65865 -0.856112 0.138253 -7.1813 2.15408 0 8.65624 -1.42685 -0.467836 13.982 -8.45072 7.10543e-015 3.80999 -0.190247 -5.72845 -0.882192 -8.42445 -1.4963 7.5744 -1.52136 -43.5824 -1.20887 5.42137 -5.47506 -0.905672 0.485692 -9.38699 -41.0008 -4.30072 -11.3069 -0.201091 0.618544 1.64481 -31.3326 9.03653 -9.61414 -0.254739 3.48553 9.94985 -24.6565 -6.94138 0.176263 -0.07068 1.26622 -15.6899 50.4111 18.512 -1.04683 -0.546484 1.82182 -0.515934 0.557627 -1.56014 -0.993472 -0.621916 0.655506 -2.72966 3.3553 -8.82947 -2.64253 0.566363 2.4162 -23.5967 5.46707 -14.5255 -1.39394 -0.635138 0.899356 39.8961 7.70394 -8.81743 -0.622395 -0.856016 0.402182 39.2014 7.62946 -8.62659 -3.20814 0.514427 1.52547 -0.842798 5.95804 -9.81752 -1.56545 -0.497974 0.68919 52.7409 10.533 -13.0893 -0.679943 -1.17582 0.444246 44.481 9.78104 -10.5178 -3.47877 0.200518 0.597719 16.3691 -0.64027 -5.84748 -1.28208 -0.53155 0.44672 37.8363 9.71773 -10.3215 -0.710288 -0.970167 0.4032 39.1354 9.91108 -10.7659 -3.42483 -0.278904 -0.240415 24.5489 -1.93034 -2.28279 -1.05787 -0.635999 0.156459 31.0685 9.4788 -7.89267 -0.42815 -0.754232 0.287187 30.9985 9.46354 -7.86994 1.4963 7.5744 -1.52136 0.649934 0.946024 9.41506 5.47506 -0.905672 0.485692 -74.519 -1.09602 31.2315 11.3069 -0.201091 0.618544 1.88441 7.25412 -13.0867 9.61414 -0.254739 3.48553 -25.356 -41.2384 0.675328 -0.176263 -0.07068 1.26622 -0.324392 -0.112396 -0.638599 1.04683 -0.546484 1.82182 -0.000222446 -0.00024863 0.000115501 0.993472 -0.621916 0.655506 -0.221058 -0.0647179 -0.393375 2.64253 0.566363 2.4162 0.777338 -0.3734 -0.758432 1.39394 -0.635138 0.899356 0.774925 -0.261613 -0.308222 0.622395 -0.856016 0.402182 0.862631 -0.291846 -0.343123 3.20814 0.514427 1.52547 2.81231 -1.10369 -1.12348 1.56545 -0.497974 0.68919 2.81902 -1.10404 -1.11201 0.679943 -1.17582 0.444246 2.81907 -1.10413 -1.11232 3.47877 0.200518 0.597719 2.82553 -3.98358 -5.52725 1.28208 -0.53155 0.44672 5.15836 -2.28801 -2.27389 0.710288 -0.970167 0.4032 5.15859 -2.288 -2.27397 3.42483 -0.278904 -0.240415 11.838 -5.49944 -4.09127 1.05787 -0.635999 0.156459 4.61868 -2.19345 -1.99281 0.42815 -0.754232 0.287187 3.4845 -1.63679 -1.51659 -4.17848 -1.02486 0.046356 -1.98522 -20.9059 44.9944 1.27155 -17.465 -0.237699 10.4928 42.8388 -2.71235 0.529163 -17.3815 -1.19582 -5.99526 9.89186 -17.9651 -0.711591 -4.4863 4.0596 17.003 1.98478 -6.64093 4.17848 -1.02486 0.046356 -20.4902 3.90601 -1.27323 -1.27155 -17.465 -0.237699 0.310337 -3.13182 0.105748 -0.529163 -17.3815 -1.19582 9.99139 -0.204319 -7.17773 0.711591 -4.4863 4.0596 5.68674 4.87719 -1.05925 
